<?xml version="1.0" encoding="UTF-8"?>
<svg id="Layer_1" data-name="Layer 1" xmlns="http://www.w3.org/2000/svg" xmlns:xlink="http://www.w3.org/1999/xlink" version="1.1" viewBox="0 0 166.85 47.05">
  <defs>
    <style>
      .cls-1 {
        fill: #222223;
      }

      .cls-1, .cls-2, .cls-3, .cls-4, .cls-5, .cls-6, .cls-7, .cls-8, .cls-9, .cls-10 {
        stroke-width: 0px;
      }

      .cls-11 {
        mask: url(#mask);
      }

      .cls-2 {
        fill: url(#linear-gradient);
      }

      .cls-3 {
        fill: #ed2129;
      }

      .cls-4 {
        fill: url(#linear-gradient-4);
      }

      .cls-5 {
        fill: url(#linear-gradient-2);
      }

      .cls-6 {
        fill: url(#linear-gradient-3);
      }

      .cls-7 {
        fill: url(#linear-gradient-7);
      }

      .cls-8 {
        fill: url(#linear-gradient-5);
      }

      .cls-9 {
        fill: url(#linear-gradient-6);
      }

      .cls-10 {
        fill: #fff;
      }

      .cls-12 {
        mask: url(#mask-3);
      }

      .cls-13 {
        mask: url(#mask-2);
      }

      .cls-14 {
        mask: url(#mask-5);
      }

      .cls-15 {
        mask: url(#mask-4);
      }

      .cls-16 {
        mask: url(#mask-1);
      }

      .cls-17 {
        mask: url(#mask-6);
      }
    </style>
    <mask id="mask" x="25.37" y="15.29" width="12.99" height="12.75" maskUnits="userSpaceOnUse">
      <g id="mask0_243_20680" data-name="mask0 243 20680">
        <path class="cls-10" d="M26.45,15.37c-.26.63-.61,1.22-.73,1.91-.21,1.27-.35,2.54-.22,3.82.15,1.53.72,2.9,1.72,4.09.95,1.13,2.15,1.92,3.54,2.37,1,.33,2.03.48,3.09.35.91-.11,1.78-.34,2.56-.82.47-.28.9-.62,1.32-.97.24-.2.43-.47.64-.7-.11,0-.16.04-.22.08-.4.28-.77.61-1.2.83-1.39.74-2.88.98-4.43.71-2.28-.41-4.11-1.53-5.36-3.53-.71-1.13-1.06-2.38-1.12-3.71-.05-1.26.1-2.51.36-3.74.05-.25.1-.5.15-.78-.06.04-.1.05-.11.08"/>
      </g>
    </mask>
    <linearGradient id="linear-gradient" x1="1309.86" y1="-2093.22" x2="1309.86" y2="-2119.44" gradientTransform="translate(-1278 -2087.9) scale(1 -1)" gradientUnits="userSpaceOnUse">
      <stop offset="0" stop-color="#f7b917"/>
      <stop offset=".05" stop-color="#f6b717"/>
      <stop offset="1" stop-color="#f5951e"/>
    </linearGradient>
    <mask id="mask-1" x="43.45" y="14.4" width=".03" height=".03" maskUnits="userSpaceOnUse">
      <g id="mask1_243_20680" data-name="mask1 243 20680">
        <path class="cls-10" d="M43.45,14.4s.02.02.03.03v-.02s-.03-.01-.03-.01Z"/>
      </g>
    </mask>
    <linearGradient id="linear-gradient-2" x1="1335.07" y1="-2102.32" x2="1335.1" y2="-2102.32" xlink:href="#linear-gradient"/>
    <mask id="mask-2" x="33.43" y="5.32" width="12.02" height="22.46" maskUnits="userSpaceOnUse">
      <g id="mask2_243_20680" data-name="mask2 243 20680">
        <path class="cls-10" d="M33.78,5.37c-.35.99-.31,1.97.2,2.9.56,1.02,1.31,1.89,2.23,2.59.97.74,1.96,1.45,2.94,2.17,1.09.79,2.16,1.59,3.05,2.6.79.9,1.43,1.9,1.84,3.01.64,1.74.87,3.54.71,5.4-.09,1.01-.35,1.97-.74,2.89-.12.27-.25.54-.38.81.02.01.04.02.07.03.08-.15.15-.3.24-.44.45-.69.77-1.43,1.02-2.22.32-1.01.48-2.05.45-3.1-.02-.78-.14-1.55-.26-2.32-.39-2.39-1.61-4.32-3.39-5.92-.96-.86-2.02-1.57-3.07-2.31-1.12-.78-2.24-1.57-3.14-2.61-.68-.79-1.19-1.67-1.48-2.66-.08-.29-.15-.58-.23-.88-.04.03-.07.03-.07.05"/>
      </g>
    </mask>
    <linearGradient id="linear-gradient-3" x1="7159.51" y1="-2104.45" x2="7171.37" y2="-2104.45" xlink:href="#linear-gradient"/>
    <mask id="mask-3" x="23.68" y="1.13" width="22.54" height="32.14" maskUnits="userSpaceOnUse">
      <g id="mask3_243_20680" data-name="mask3 243 20680">
        <path class="cls-10" d="M30.75,27.56c-1.39-.45-2.59-1.24-3.54-2.37-.99-1.18-1.57-2.55-1.72-4.09-.12-1.28,0-2.56.22-3.82.12-.69.48-1.28.73-1.91,0-.02.05-.04.11-.08-.05.28-.1.53-.15.78-.25,1.23-.41,2.48-.36,3.74.06,1.33.41,2.57,1.12,3.71,1.25,2,3.08,3.12,5.36,3.53,1.54.28,3.04.03,4.43-.71.43-.23.8-.55,1.2-.83.06-.04.11-.09.22-.08-.21.24-.4.5-.64.7-.42.35-.86.68-1.32.97-.78.48-1.65.7-2.56.82-.26.03-.52.05-.78.05-.79,0-1.56-.15-2.32-.39M43.63,27.76c.12-.27.26-.54.38-.81.39-.93.65-1.89.74-2.89.16-1.85-.06-3.66-.71-5.4-.42-1.12-1.05-2.11-1.84-3.01-.9-1.02-1.97-1.82-3.05-2.6-.99-.72-1.98-1.43-2.94-2.17-.92-.71-1.67-1.58-2.23-2.59-.51-.93-.55-1.9-.2-2.9,0-.02.03-.02.07-.05.08.3.15.59.23.88.29,1,.8,1.88,1.48,2.66.9,1.05,2.02,1.83,3.14,2.61,1.05.74,2.11,1.45,3.07,2.31,1.78,1.59,2.99,3.53,3.39,5.92.12.77.24,1.54.26,2.32.03,1.05-.12,2.09-.45,3.1-.25.78-.57,1.53-1.02,2.22-.09.14-.16.3-.24.44-.02-.01-.05-.02-.07-.03M34.81,1.24c-.88,1.51-1.61,3.08-2,4.79-.55,2.47-.06,4.71,1.51,6.7.39.5.82.97,1.26,1.43.71.73,1.45,1.42,2.17,2.14.55.55,1.07,1.14,1.48,1.81.72,1.18.86,2.42.42,3.73-.22.64-.52,1.24-.9,1.8-1.47,2.19-3.54,3.05-6.1,2.66-2.98-.45-5.87-2.91-5.85-6.92,0-1.25.18-2.49.46-3.71.55-2.45,1.42-4.78,2.54-7.02.06-.11.11-.23.16-.34-.12.04-.18.11-.23.19-.91,1.42-1.84,2.83-2.7,4.28-1.01,1.68-1.86,3.44-2.48,5.31-.6,1.81-.86,3.65-.56,5.57.8,5.12,5.07,9.09,10.21,9.42,3.01.2,5.7-.66,8.03-2.59,2.06-1.71,3.35-3.89,3.8-6.55.21-1.23.15-2.46-.02-3.69-.28-2.07-1.02-3.95-2.35-5.57-.05-.06-.09-.14-.15-.23-1.4-1.59-3.08-2.58-4.76-3.84-.67-.47-1.32-.96-1.93-1.52-1.1-1.01-1.88-2.21-2.15-3.71-.18-.99-.15-1.97.01-2.96.07-.42.15-.83.24-1.28-.05.05-.08.07-.1.1"/>
      </g>
    </mask>
    <linearGradient id="linear-gradient-4" x1="1312.95" y1="-2099.07" x2="1312.95" y2="-2119.95" gradientTransform="translate(-1278 -2087.9) scale(1 -1)" gradientUnits="userSpaceOnUse">
      <stop offset="0" stop-color="#f47f20"/>
      <stop offset=".19" stop-color="#f37420"/>
      <stop offset=".52" stop-color="#f05722"/>
      <stop offset=".95" stop-color="#ed2925"/>
      <stop offset="1" stop-color="#ed2426"/>
    </linearGradient>
    <mask id="mask-4" x="41.58" y="8.34" width="4.18" height="4.98" maskUnits="userSpaceOnUse">
      <g id="mask4_243_20680" data-name="mask4 243 20680">
        <path class="cls-10" d="M41.58,8.86c1.34-.27,2.44.1,3.05,1.31.56,1.09.41,2.19-.47,3.15.71-.2,1.39-1.17,1.46-2,.12-1.35-.56-2.29-1.6-2.78-.28-.13-.63-.2-.98-.2-.57,0-1.15.18-1.47.52"/>
      </g>
    </mask>
    <linearGradient id="linear-gradient-5" x1="1321.67" y1="-4310.18" x2="1321.67" y2="-4314.68" xlink:href="#linear-gradient"/>
    <mask id="mask-5" x="3.82" y="11.2" width="18.83" height="21.06" maskUnits="userSpaceOnUse">
      <g id="mask5_243_20680" data-name="mask5 243 20680">
        <path class="cls-10" d="M3.82,11.2v21.05h5.45v-8.76h7.93v8.34c0,.14.01.28.02.42h5.43V11.21h-5.45v8.09h-7.93v-7.67c0-.14,0-.28-.02-.42H3.82Z"/>
      </g>
    </mask>
    <linearGradient id="linear-gradient-6" x1="1291.24" y1="-2099.42" x2="1291.24" y2="-2120.44" gradientTransform="translate(-1278 -2087.9) scale(1 -1)" gradientUnits="userSpaceOnUse">
      <stop offset="0" stop-color="#f47d27"/>
      <stop offset=".2" stop-color="#f37227"/>
      <stop offset=".53" stop-color="#f15727"/>
      <stop offset=".97" stop-color="#ee2b28"/>
      <stop offset="1" stop-color="#ee2829"/>
    </linearGradient>
    <mask id="mask-6" x="47.13" y="11.21" width="14.49" height="21.12" maskUnits="userSpaceOnUse">
      <g id="mask6_243_20680" data-name="mask6 243 20680">
        <path class="cls-10" d="M47.22,11.21c-.08.45-.06,4.23.03,4.52h4.39v13.77c0,.92-.01,1.83,0,2.74.6.07,5.17.05,5.46-.04V15.72h4.51v-4.51h-14.41,0Z"/>
      </g>
    </mask>
    <linearGradient id="linear-gradient-7" x1="1332.38" y1="-12451.64" x2="1332.38" y2="-12472.64" xlink:href="#linear-gradient-6"/>
  </defs>
  <g class="cls-11">
    <path class="cls-2" d="M38.36,15.29h-12.99v12.75h12.99v-12.75Z"/>
  </g>
  <g class="cls-16">
    <path class="cls-5" d="M43.48,14.4h-.03v.03h.03v-.03Z"/>
  </g>
  <g class="cls-13">
    <path class="cls-6" d="M45.45,5.32h-12.02v22.46h12.02V5.32Z"/>
  </g>
  <g class="cls-12">
    <path class="cls-4" d="M46.22,1.14h-22.54v32.14h22.54V1.14Z"/>
  </g>
  <g class="cls-15">
    <path class="cls-8" d="M45.75,8.34h-4.17v4.98h4.17v-4.98Z"/>
  </g>
  <path class="cls-3" d="M46.34,10.44c-.26-1.6-1.69-2.82-3.32-2.83-.82,0-1.56.25-2.2.79-.85.71-1.24,1.64-1.24,2.76,0,.02,0,.05,0,.07,1.39.99,2.75,1.9,3.91,3.22,0,0-.01-.02-.02-.03.96-.18,1.73-.63,2.28-1.4.55-.78.75-1.64.59-2.58M45.63,11.32c-.08.83-.75,1.8-1.46,2,.87-.96,1.02-2.06.47-3.15-.62-1.21-1.71-1.59-3.05-1.31.51-.55,1.7-.67,2.45-.32,1.04.49,1.72,1.43,1.6,2.78Z"/>
  <path class="cls-1" d="M62.72,11.17h5.71c1.21,4.52,2.42,9.03,3.63,13.55.03,0,.05,0,.08,0,1.47-4.51,2.95-9.01,4.43-13.54h4.35c1.37,4.49,2.74,9,4.12,13.52.03,0,.05,0,.08,0,.46-1.49.88-2.99,1.32-4.48.44-1.51.88-3.02,1.32-4.52.44-1.51.88-3.01,1.32-4.52h5.69c-2.25,7.05-4.48,14.06-6.72,21.09h-5.59c-1.27-4.03-2.54-8.07-3.81-12.11h-.09c-1.33,4.04-2.66,8.07-3.99,12.12h-5.57c-2.09-7.01-4.17-14.03-6.28-21.1"/>
  <path class="cls-1" d="M105.96,10.53c1.68-.02,3.32.23,4.89.87,2.53,1.04,4.34,2.85,5.59,5.25.99,1.9,1.33,3.94,1.15,6.07-.31,3.64-2.03,6.46-5.01,8.51-1.25.86-2.66,1.35-4.16,1.59-2.07.34-4.13.29-6.15-.28-2.96-.83-5.14-2.66-6.59-5.33-1.72-3.16-1.8-6.44-.48-9.77.98-2.47,2.61-4.36,4.96-5.62,1.61-.86,3.35-1.23,5.16-1.3.22,0,.44,0,.66,0M111.95,21.8c.07-3.35-2.82-5.97-5.95-5.97-3.11,0-5.98,2.43-6.04,5.94-.05,2.83,2.35,5.96,5.97,5.97,3.51,0,6.08-2.9,6.02-5.94Z"/>
  <path class="cls-1" d="M137.08,32.26c-.19,0-.3.02-.4.02-2.01,0-4.02,0-6.03,0-.27,0-.42-.1-.55-.32-1.58-2.47-3.17-4.94-4.76-7.4-.06-.1-.13-.19-.27-.26v7.95h-5.45V11.17c.12-.01.22-.02.33-.02,2.73,0,5.47,0,8.2,0,1,0,1.98.12,2.93.45,1.82.65,3.01,1.93,3.64,3.74.52,1.48.52,2.99.07,4.49-.53,1.75-1.68,2.93-3.42,3.52-.27.09-.54.16-.86.26.72.99,1.46,1.92,2.18,2.87.72.95,1.45,1.89,2.17,2.84.73.95,1.46,1.91,2.24,2.93M125.08,20.6c.53,0,1.04.03,1.55-.01.41-.03.83-.11,1.21-.25.99-.36,1.58-1.31,1.56-2.43-.02-1.09-.65-2-1.64-2.34-.23-.08-.47-.14-.71-.18-.65-.1-1.31-.06-1.98-.06v5.28h0Z"/>
  <path class="cls-1" d="M151.63,21.01c2.64,3.74,5.27,7.47,7.93,11.24-.15.01-.22.02-.3.03-1.99,0-3.97,0-5.96,0-.25,0-.37-.09-.5-.29-1.33-2.03-2.66-4.06-3.99-6.09-.1-.15-.2-.3-.34-.5-.1.13-.18.23-.26.34-1.43,2.07-2.85,4.14-4.27,6.22-.15.22-.31.33-.59.32-1.93-.01-3.87,0-5.81,0h-.31s-.03-.05-.03-.06c0-.01,0-.02,0-.03.01-.02.01-.05.03-.07,2.69-3.68,5.39-7.37,8.08-11.06,0-.01,0-.02.03-.08-2.21-3.24-4.45-6.5-6.71-9.81.18,0,.29-.02.4-.02,1.99,0,3.97,0,5.96,0,.27,0,.41.09.54.32.91,1.61,1.84,3.22,2.76,4.83.06.1.12.2.21.34.1-.15.17-.26.24-.38.96-1.6,1.92-3.2,2.87-4.81.13-.21.26-.3.52-.3,2,.01,3.99,0,5.99,0,.1,0,.19,0,.27.01.01.03.02.04.02.05,0,.01,0,.03,0,.03-2.25,3.24-4.51,6.49-6.79,9.77"/>
  <g class="cls-14">
    <path class="cls-9" d="M22.66,11.2H3.82v21.06h18.83V11.2Z"/>
  </g>
  <g class="cls-17">
    <path class="cls-7" d="M61.62,11.21h-14.49v21.12h14.49V11.21Z"/>
  </g>
  <path class="cls-1" d="M162.45,32.83c-.33,0-.64-.06-.93-.19-.29-.12-.54-.3-.76-.51-.21-.21-.39-.47-.51-.76-.12-.29-.19-.6-.19-.93s.06-.63.19-.92c.13-.29.3-.54.51-.75.21-.21.47-.38.76-.51.29-.12.6-.19.93-.19s.64.06.92.19c.29.13.54.29.75.51.21.21.38.46.51.75.12.29.18.6.18.92s-.06.64-.18.93c-.12.29-.29.54-.51.76-.22.22-.47.39-.75.51-.29.13-.59.19-.92.19ZM162.45,32.51c.29,0,.56-.05.8-.16.24-.11.46-.25.63-.44.17-.19.31-.4.41-.66.1-.25.15-.52.15-.82s-.05-.56-.15-.81c-.1-.25-.24-.47-.41-.65-.18-.18-.39-.33-.63-.44-.24-.11-.51-.16-.8-.16s-.55.05-.8.16c-.25.11-.46.25-.64.44-.18.18-.32.4-.42.65-.1.25-.15.52-.15.81s.05.57.15.82c.1.25.24.47.42.66.18.19.39.33.64.44.25.11.51.16.8.16ZM163.64,31.77h-.39l-.76-1.22h-.6v1.22h-.33v-2.66h1.16c.35,0,.59.06.73.19.14.12.21.3.21.52,0,.13-.02.24-.06.33-.04.09-.1.17-.18.22-.07.06-.16.1-.27.12-.1.03-.21.04-.33.05l.8,1.22h0ZM162.39,30.29h.3c.11,0,.21-.01.3-.04.09-.02.17-.07.23-.14.06-.07.09-.17.09-.3,0-.1-.02-.19-.06-.25-.04-.06-.09-.11-.15-.14-.06-.03-.14-.05-.21-.06-.08-.01-.16-.02-.24-.02h-.76v.94h.5Z"/>
  <path class="cls-1" d="M10.43,43.21l1.6-1.32c.6-.5.83-.76.83-1.16s-.27-.63-.65-.63-.63.21-.99.65l-.74-.6c.48-.65.94-1,1.8-1,1,0,1.66.59,1.66,1.49h0c0,.82-.41,1.22-1.27,1.88l-.79.61h2.1v.92h-3.57v-.84h0Z"/>
  <path class="cls-1" d="M17.32,43.01h-2.36l-.17-.75,2.64-3.07h.9v2.96h.65v.86h-.65v1.04h-1.01v-1.04ZM17.32,42.15v-1.5l-1.28,1.5h1.28Z"/>
  <path class="cls-1" d="M22.66,39.22h1.06v1.91h1.96v-1.91h1.06v4.83h-1.06v-1.94h-1.96v1.94h-1.06v-4.83Z"/>
  <path class="cls-1" d="M27.98,41.65h0c0-1.39,1.08-2.51,2.57-2.51s2.55,1.11,2.55,2.48h0c0,1.39-1.08,2.51-2.57,2.51s-2.55-1.11-2.55-2.48M31.99,41.65h0c0-.84-.61-1.53-1.46-1.53s-1.45.68-1.45,1.51h0c0,.84.61,1.53,1.46,1.53s1.45-.68,1.45-1.5Z"/>
  <path class="cls-1" d="M34.26,41.98v-2.76h1.06v2.73c0,.79.39,1.19,1.04,1.19s1.04-.39,1.04-1.16v-2.77h1.06v2.72c0,1.46-.82,2.18-2.11,2.18s-2.09-.73-2.09-2.15"/>
  <path class="cls-1" d="M39.9,39.22h2.2c.61,0,1.09.17,1.41.49.27.27.41.65.41,1.1h0c0,.79-.42,1.28-1.03,1.51l1.18,1.72h-1.24l-1.03-1.55h-.83v1.55h-1.06v-4.83h0ZM42.03,41.57c.52,0,.81-.28.81-.68h0c0-.47-.32-.71-.83-.71h-1.05v1.39h1.07,0Z"/>
  <path class="cls-1" d="M48.74,39.22h-1.06v4.83h1.06v-4.83Z"/>
  <path class="cls-1" d="M50.24,39.22h.98l2.26,2.97v-2.97h1.05v4.83h-.9l-2.34-3.07v3.07h-1.04v-4.83Z"/>
  <path class="cls-1" d="M56,39.22h3.67v.97h-2.61v1.03h2.3v.97h-2.3v1.87h-1.06v-4.83Z"/>
  <path class="cls-1" d="M60.79,39.22h2.2c.61,0,1.09.17,1.41.49.27.27.41.65.41,1.1h0c0,.79-.42,1.28-1.03,1.51l1.18,1.72h-1.24l-1.03-1.55h-.83v1.55h-1.06v-4.83h0ZM62.92,41.57c.52,0,.81-.28.81-.68h0c0-.47-.32-.71-.83-.71h-1.05v1.39h1.07,0Z"/>
  <path class="cls-1" d="M67.84,39.19h.98l2.06,4.86h-1.11l-.44-1.08h-2.04l-.44,1.08h-1.08l2.06-4.86h0ZM68.96,42.03l-.64-1.57-.64,1.57h1.28,0Z"/>
  <path class="cls-1" d="M71.88,39.22h2.2c.61,0,1.09.17,1.41.49.27.27.41.65.41,1.1h0c0,.79-.42,1.28-1.03,1.51l1.18,1.72h-1.24l-1.03-1.55h-.83v1.55h-1.06v-4.83h0ZM74.01,41.57c.52,0,.81-.28.81-.68h0c0-.47-.32-.71-.83-.71h-1.05v1.39h1.07,0Z"/>
  <path class="cls-1" d="M77.18,39.22h3.63v.94h-2.58v.98h2.27v.95h-2.27v1.01h2.62v.94h-3.67v-4.83Z"/>
  <path class="cls-1" d="M82.15,39.22h1.88c1.51,0,2.56,1.04,2.56,2.4h0c0,1.37-1.05,2.43-2.56,2.43h-1.88v-4.83ZM83.21,40.18v2.91h.82c.87,0,1.45-.59,1.45-1.44h0c0-.87-.58-1.47-1.45-1.47h-.82Z"/>
  <path class="cls-1" d="M90.29,39.22h3.67v.97h-2.61v1.03h2.3v.97h-2.3v1.87h-1.06v-4.83Z"/>
  <path class="cls-1" d="M96.17,39.22h-1.06v4.83h1.06v-4.83Z"/>
  <path class="cls-1" d="M98.67,40.2h-1.47v-.98h3.99v.98h-1.47v3.85h-1.06v-3.85Z"/>
  <path class="cls-1" d="M102.21,39.22h.98l2.26,2.97v-2.97h1.05v4.83h-.9l-2.34-3.07v3.07h-1.05v-4.83Z"/>
  <path class="cls-1" d="M107.98,39.22h3.64v.94h-2.58v.98h2.27v.95h-2.27v1.01h2.62v.94h-3.67v-4.83Z"/>
  <path class="cls-1" d="M112.58,43.35l.63-.75c.43.36.89.59,1.44.59.43,0,.7-.17.7-.46h0c0-.28-.16-.42-.97-.63-.97-.25-1.6-.52-1.6-1.48v-.02c0-.87.7-1.46,1.69-1.46.7,0,1.3.22,1.79.61l-.55.8c-.43-.3-.85-.48-1.25-.48s-.62.19-.62.42h0c0,.33.21.44,1.04.65.98.25,1.53.61,1.53,1.45h0c0,.97-.73,1.51-1.77,1.51-.73,0-1.47-.25-2.04-.77"/>
  <path class="cls-1" d="M117.24,43.35l.63-.75c.43.36.89.59,1.44.59.43,0,.7-.17.7-.46h0c0-.28-.16-.42-.97-.63-.97-.25-1.6-.52-1.6-1.48v-.02c0-.87.7-1.46,1.69-1.46.7,0,1.3.22,1.79.61l-.55.8c-.43-.3-.85-.48-1.25-.48s-.62.19-.62.42h0c0,.33.21.44,1.04.65.98.25,1.53.61,1.53,1.45h0c0,.97-.73,1.51-1.77,1.51-.73,0-1.47-.25-2.04-.77"/>
  <path class="cls-1" d="M124.41,43.35l.63-.75c.43.36.89.59,1.44.59.43,0,.69-.17.69-.46h0c0-.28-.16-.42-.97-.63-.97-.25-1.6-.52-1.6-1.48v-.02c0-.87.7-1.46,1.69-1.46.7,0,1.3.22,1.79.61l-.55.8c-.43-.3-.85-.48-1.25-.48s-.62.19-.62.42h0c0,.33.21.44,1.04.65.98.25,1.53.61,1.53,1.45h0c0,.97-.73,1.51-1.77,1.51-.73,0-1.46-.25-2.04-.77"/>
  <path class="cls-1" d="M130.52,40.2h-1.47v-.98h3.99v.98h-1.47v3.85h-1.06v-3.85Z"/>
  <path class="cls-1" d="M134.03,41.98v-2.76h1.06v2.73c0,.79.39,1.19,1.04,1.19s1.04-.39,1.04-1.16v-2.77h1.06v2.72c0,1.46-.82,2.18-2.11,2.18s-2.09-.73-2.09-2.15Z"/>
  <path class="cls-1" d="M139.66,39.22h1.88c1.51,0,2.56,1.04,2.56,2.4h0c0,1.37-1.05,2.43-2.56,2.43h-1.88v-4.83ZM140.72,40.18v2.91h.82c.87,0,1.45-.59,1.45-1.44h0c0-.87-.58-1.47-1.45-1.47h-.82Z"/>
  <path class="cls-1" d="M146.43,39.22h-1.06v4.83h1.06v-4.83Z"/>
  <path class="cls-1" d="M147.68,41.65h0c0-1.39,1.08-2.51,2.57-2.51s2.55,1.11,2.55,2.48h0c0,1.39-1.08,2.51-2.57,2.51s-2.55-1.11-2.55-2.48M151.69,41.65h0c0-.84-.6-1.53-1.46-1.53s-1.45.68-1.45,1.51h0c0,.84.61,1.53,1.46,1.53s1.44-.68,1.44-1.5Z"/>
</svg>